<svg width="32" height="32" viewBox="0 0 32 32" fill="none" xmlns="http://www.w3.org/2000/svg">
  <!-- Tomato body -->
  <circle cx="16" cy="18" r="12" fill="#E53E3E"/>
  
  <!-- Tomato highlight -->
  <ellipse cx="13" cy="15" rx="3" ry="4" fill="#FC8181" opacity="0.7"/>
  
  <!-- Tomato stem -->
  <path d="M16 6 C16 6, 14 4, 12 5 C10 6, 11 8, 13 7 C15 6, 16 6, 16 6 Z" fill="#38A169"/>
  <path d="M16 6 C16 6, 18 4, 20 5 C22 6, 21 8, 19 7 C17 6, 16 6, 16 6 Z" fill="#38A169"/>
  
  <!-- Timer elements -->
  <circle cx="16" cy="18" r="9" fill="none" stroke="#FFFFFF" stroke-width="1" opacity="0.8"/>
  
  <!-- Timer hand -->
  <line x1="16" y1="18" x2="16" y2="11" stroke="#FFFFFF" stroke-width="2" stroke-linecap="round"/>
  <line x1="16" y1="18" x2="21" y2="18" stroke="#FFFFFF" stroke-width="1" stroke-linecap="round" opacity="0.6"/>
  
  <!-- Center dot -->
  <circle cx="16" cy="18" r="1" fill="#FFFFFF"/>
</svg>
